<?xml version="1.0" encoding="UTF-8"?>
<svg id="Layer_1" data-name="Layer 1" xmlns="http://www.w3.org/2000/svg" viewBox="0 0 1024 445">
  <defs>
    <style>
      .cls-1 {
        stroke-width: 0px;
      }
    </style>
  </defs>
  <path class="cls-1" d="m77.73,300.93v-154h65.78c10.7,0,19.76,1.65,27.17,4.95,7.4,3.3,13.01,7.92,16.83,13.86,3.81,5.94,5.72,12.95,5.72,21.01s-1.65,14.3-4.95,19.58c-3.3,5.28-7.74,9.32-13.31,12.1-5.58,2.79-11.66,4.48-18.26,5.06l3.52-2.64c7.18.3,13.49,2.2,18.92,5.72,5.42,3.52,9.71,8.11,12.87,13.75,3.15,5.65,4.73,11.85,4.73,18.59,0,8.36-1.98,15.7-5.94,22-3.96,6.31-9.72,11.22-17.27,14.74-7.56,3.52-16.76,5.28-27.61,5.28h-68.2Zm33-90.64h27.06c7.04,0,12.43-1.61,16.17-4.84,3.74-3.22,5.61-7.77,5.61-13.64s-1.87-10.45-5.61-13.75c-3.74-3.3-9.21-4.95-16.39-4.95h-26.84v37.18Zm0,63.8h29.7c7.18,0,12.79-1.65,16.83-4.95,4.03-3.3,6.05-8.1,6.05-14.41s-2.09-11.22-6.27-14.74c-4.18-3.52-9.87-5.28-17.05-5.28h-29.26v39.38Z"/>
  <path class="cls-1" d="m257.47,303.57c-9.1,0-16.69-1.51-22.77-4.51-6.09-3-10.56-7-13.42-11.99-2.86-4.98-4.29-10.56-4.29-16.72s1.65-12.28,4.95-17.49c3.3-5.2,8.43-9.27,15.4-12.21,6.96-2.93,15.95-4.4,26.95-4.4h26.62c0-4.98-.63-9.13-1.87-12.43-1.25-3.3-3.27-5.75-6.05-7.37-2.79-1.61-6.6-2.42-11.44-2.42-5.14,0-9.46,1.07-12.98,3.19-3.52,2.13-5.72,5.39-6.6,9.79h-31.68c.73-7.92,3.3-14.81,7.7-20.68,4.4-5.86,10.37-10.48,17.93-13.86,7.55-3.37,16.17-5.06,25.85-5.06,10.56,0,19.72,1.69,27.5,5.06,7.77,3.38,13.82,8.4,18.15,15.07,4.32,6.68,6.49,14.93,6.49,24.75v68.64h-27.5l-3.96-16.06c-1.62,2.79-3.52,5.32-5.72,7.59-2.2,2.28-4.77,4.26-7.7,5.94-2.94,1.69-6.16,2.97-9.68,3.85-3.52.88-7.48,1.32-11.88,1.32Zm8.36-25.08c3.37,0,6.38-.58,9.02-1.76,2.64-1.17,4.95-2.78,6.93-4.84,1.98-2.05,3.59-4.43,4.84-7.15,1.24-2.71,2.16-5.75,2.75-9.13h-21.34c-3.67,0-6.75.48-9.24,1.43-2.5.96-4.29,2.35-5.39,4.18-1.1,1.84-1.65,3.85-1.65,6.05,0,2.5.62,4.55,1.87,6.16,1.24,1.62,2.93,2.86,5.06,3.74,2.12.88,4.51,1.32,7.15,1.32Z"/>
  <path class="cls-1" d="m418.72,303.57c-5.43,0-10.31-.66-14.63-1.98-4.33-1.32-8.14-3.19-11.44-5.61-3.3-2.42-6.2-5.17-8.69-8.25l-3.3,13.2h-29.26v-158.4h33v62.04c3.37-4.98,7.84-9.09,13.42-12.32,5.57-3.22,12.46-4.84,20.68-4.84,10.12,0,19.14,2.53,27.06,7.59,7.92,5.06,14.26,11.96,19.03,20.68,4.76,8.73,7.15,18.67,7.15,29.81s-2.35,20.94-7.04,29.81c-4.7,8.88-11,15.81-18.92,20.79s-16.94,7.48-27.06,7.48Zm-8.36-28.82c5.42,0,10.19-1.28,14.3-3.85,4.1-2.56,7.37-6.01,9.79-10.34,2.42-4.32,3.63-9.35,3.63-15.07s-1.21-10.56-3.63-14.96c-2.42-4.4-5.69-7.88-9.79-10.45-4.11-2.56-8.88-3.85-14.3-3.85s-10.01,1.29-14.19,3.85c-4.18,2.57-7.45,6.05-9.79,10.45-2.35,4.4-3.52,9.46-3.52,15.18s1.17,10.75,3.52,15.07c2.34,4.33,5.61,7.74,9.79,10.23,4.18,2.5,8.91,3.74,14.19,3.74Z"/>
  <path class="cls-1" d="m534.44,303.57c-9.1,0-16.69-1.51-22.77-4.51-6.09-3-10.56-7-13.42-11.99-2.86-4.98-4.29-10.56-4.29-16.72s1.65-12.28,4.95-17.49c3.3-5.2,8.43-9.27,15.4-12.21,6.96-2.93,15.95-4.4,26.95-4.4h26.62c0-4.98-.62-9.13-1.87-12.43-1.25-3.3-3.27-5.75-6.05-7.37-2.79-1.61-6.6-2.42-11.44-2.42-5.14,0-9.46,1.07-12.98,3.19-3.52,2.13-5.72,5.39-6.6,9.79h-31.68c.73-7.92,3.3-14.81,7.7-20.68,4.4-5.86,10.38-10.48,17.93-13.86,7.55-3.37,16.17-5.06,25.85-5.06,10.56,0,19.72,1.69,27.5,5.06,7.77,3.38,13.82,8.4,18.15,15.07,4.32,6.68,6.49,14.93,6.49,24.75v68.64h-27.5l-3.96-16.06c-1.62,2.79-3.52,5.32-5.72,7.59-2.2,2.28-4.77,4.26-7.7,5.94-2.94,1.69-6.16,2.97-9.68,3.85-3.52.88-7.48,1.32-11.88,1.32Zm8.36-25.08c3.37,0,6.38-.58,9.02-1.76,2.64-1.17,4.95-2.78,6.93-4.84,1.98-2.05,3.59-4.43,4.84-7.15,1.24-2.71,2.16-5.75,2.75-9.13h-21.34c-3.67,0-6.75.48-9.24,1.43-2.5.96-4.29,2.35-5.39,4.18-1.1,1.84-1.65,3.85-1.65,6.05,0,2.5.62,4.55,1.87,6.16,1.24,1.62,2.93,2.86,5.06,3.74,2.12.88,4.51,1.32,7.15,1.32Z"/>
  <path class="cls-1" d="m695.7,303.57c-5.43,0-10.31-.66-14.63-1.98-4.33-1.32-8.14-3.19-11.44-5.61-3.3-2.42-6.2-5.17-8.69-8.25l-3.3,13.2h-29.26v-158.4h33v62.04c3.37-4.98,7.84-9.09,13.42-12.32,5.57-3.22,12.46-4.84,20.68-4.84,10.12,0,19.14,2.53,27.06,7.59s14.26,11.96,19.03,20.68c4.76,8.73,7.15,18.67,7.15,29.81s-2.35,20.94-7.04,29.81c-4.7,8.88-11,15.81-18.92,20.79s-16.94,7.48-27.06,7.48Zm-8.36-28.82c5.42,0,10.19-1.28,14.3-3.85,4.1-2.56,7.37-6.01,9.79-10.34,2.42-4.32,3.63-9.35,3.63-15.07s-1.21-10.56-3.63-14.96-5.69-7.88-9.79-10.45c-4.11-2.56-8.88-3.85-14.3-3.85s-10.01,1.29-14.19,3.85c-4.18,2.57-7.45,6.05-9.79,10.45-2.35,4.4-3.52,9.46-3.52,15.18s1.17,10.75,3.52,15.07c2.34,4.33,5.61,7.74,9.79,10.23,4.18,2.5,8.91,3.74,14.19,3.74Z"/>
  <path class="cls-1" d="m827.25,303.57c-10.71,0-20.35-2.5-28.93-7.48s-15.33-11.84-20.24-20.57c-4.92-8.72-7.37-18.66-7.37-29.81s2.46-21.56,7.37-30.36c4.91-8.8,11.66-15.65,20.24-20.57,8.58-4.91,18.22-7.37,28.93-7.37s20.49,2.46,28.93,7.37c8.43,4.92,15.14,11.74,20.13,20.46,4.98,8.73,7.48,18.81,7.48,30.25s-2.5,21.31-7.48,30.03c-4.99,8.73-11.7,15.59-20.13,20.57-8.44,4.98-18.08,7.48-28.93,7.48Zm0-28.6c4.25,0,8.1-1.1,11.55-3.3,3.44-2.2,6.19-5.5,8.25-9.9,2.05-4.4,3.08-9.82,3.08-16.28s-1.03-11.88-3.08-16.28c-2.06-4.4-4.81-7.7-8.25-9.9-3.45-2.2-7.3-3.3-11.55-3.3s-8.33,1.1-11.77,3.3c-3.45,2.2-6.16,5.5-8.14,9.9-1.98,4.4-2.97,9.83-2.97,16.28s.99,11.88,2.97,16.28c1.98,4.4,4.69,7.7,8.14,9.9,3.44,2.2,7.37,3.3,11.77,3.3Z"/>
  <path class="cls-1" d="m926.03,177.29c-5.87,0-10.64-1.68-14.3-5.06-3.67-3.37-5.5-7.62-5.5-12.76s1.83-9.6,5.5-12.98c3.66-3.37,8.43-5.06,14.3-5.06s10.89,1.69,14.63,5.06c3.74,3.38,5.61,7.7,5.61,12.98s-1.87,9.39-5.61,12.76c-3.74,3.38-8.62,5.06-14.63,5.06Zm-16.5,123.64v-110.88h33v110.88h-33Z"/>
</svg>